<svg id="Layer_1" data-name="Layer 1" xmlns="http://www.w3.org/2000/svg" viewBox="0 0 350 350"><defs><style>.cls-1{fill:#ff6363;fill-rule:evenodd;}</style></defs><title>color_normal_logomark</title><path class="cls-1" d="M262.88,175.5l-9.17,9.18-34.79-34.79V131.54ZM175,87.59l-9.17,9.18,34.78,34.78h18.35Zm-19.68,19.69-9.18,9.17,15.1,15.1h18.35Zm63.64,63.64v18.35l15.1,15.1,9.18-9.17ZM213.67,205l5.25-5.26H150.69V131.54l-5.26,5.26L135.59,127l-9.17,9.18,9.84,9.84L131,151.23v10.51l-15.1-15.1-9.18,9.18L131,180.09v21L96.22,166.33,87,175.5,175,263.42l9.18-9.17-34.79-34.79h21l24.27,24.27,9.18-9.18-15.1-15.1h10.51l5.26-5.26,9.84,9.84,9.17-9.18Z"/></svg>